<svg preserveAspectRatio="none" overflow="visible" style="display: block;" width="17.2093" height="15" viewBox="0 0 17.2093 15" fill="none" xmlns="http://www.w3.org/2000/svg">
<g id="icon">
<path id="bg" d="M0.172106 4.81765C0.442267 2.37197 2.37683 0.47312 4.82122 0.191449C5.77826 0.0811663 6.74059 0 7.5 0C8.25941 0 9.22174 0.0811664 10.1788 0.191449C12.6232 0.47312 14.5577 2.37197 14.8279 4.81765C14.9282 5.72563 15 6.66667 15 7.5C15 8.38454 14.9191 9.39043 14.8091 10.3493C14.5383 12.7097 12.715 14.5698 10.3533 14.8283C9.4383 14.9284 8.45124 15 7.5 15C6.54876 15 5.5617 14.9284 4.64672 14.8283C2.28498 14.5698 0.461694 12.7097 0.19091 10.3493C0.0809021 9.39043 0 8.38454 0 7.5C0 6.66667 0.0718057 5.72563 0.172106 4.81765Z" fill="#2E3136"/>
<path id="vector" fill-rule="evenodd" clip-rule="evenodd" d="M7.54176 1.3C6.8475 1.3 5.92927 1.3756 4.97419 1.48551C3.11595 1.69934 1.66819 3.1334 1.46522 4.96026C1.36699 5.8444 1.3 6.7333 1.3 7.5C1.3 8.31429 1.37553 9.26526 1.48342 10.2004C1.65429 11.6816 2.63304 12.8816 3.9676 13.3474C4.26968 13.4529 4.5 13.7215 4.5 14.0415C4.5 14.446 4.13999 14.7601 3.75244 14.6442C1.83776 14.0715 0.428564 12.4002 0.191982 10.3494C0.0813573 9.39049 0 8.38456 0 7.5C0 6.66638 0.0722557 5.72498 0.173169 4.8167C0.444853 2.3714 2.38136 0.475296 4.82557 0.194031C5.79535 0.0824357 6.77217 0 7.54176 0C8.31135 0 9.28818 0.0824357 10.258 0.194031C12.7022 0.475296 14.6387 2.3714 14.9104 4.8167C14.9511 5.18319 14.6617 5.5 14.293 5.5H14.2168C13.9091 5.5 13.6523 5.26605 13.6183 4.96026C13.4153 3.1334 11.9676 1.69934 10.1093 1.48551C9.15425 1.3756 8.23602 1.3 7.54176 1.3ZM7.63727 7.88774C7.46234 8.21886 7.37266 8.59771 7.36063 9.01775H7.2267C7.05178 9.01775 6.88636 9.06924 6.75467 9.1908C6.61936 9.31571 6.55859 9.48083 6.55859 9.65917C6.55859 9.83432 6.6253 9.99033 6.75467 10.1097C6.88636 10.2313 7.05178 10.2828 7.2267 10.2828H7.35923V13.5022C7.35923 13.6987 7.42608 13.8779 7.57209 14.0141C7.7033 14.1366 7.86381 14.2059 8.04513 14.2059C8.24136 14.2059 8.42739 14.1496 8.56885 14.0081C8.70637 13.8706 8.76662 13.6933 8.76662 13.5022V10.2828H9.424C9.59893 10.2828 9.76435 10.2313 9.89604 10.1097C10.0254 9.99033 10.0921 9.83431 10.0921 9.65917C10.0921 9.48083 10.0314 9.31571 9.89604 9.1908C9.76435 9.06924 9.59892 9.01775 9.424 9.01775H8.76664C8.76781 8.81098 8.80599 8.64441 8.87221 8.51067C8.94665 8.37222 9.04589 8.26763 9.17122 8.19153C9.29329 8.11742 9.43997 8.07661 9.61971 8.07661C9.80304 8.07661 9.97428 8.02026 10.1105 7.89372C10.2456 7.76763 10.3234 7.60532 10.3234 7.41739C10.3234 7.22833 10.2491 7.06239 10.1069 6.93771C9.97117 6.81323 9.80163 6.75818 9.61971 6.75818C9.18447 6.75818 8.7902 6.85589 8.44482 7.05864C8.10155 7.25422 7.83223 7.53131 7.63898 7.88451L7.63727 7.88774ZM12.1697 12.9057C12.4044 13.3165 12.7256 13.6443 13.1305 13.8859L13.133 13.8874C13.5422 14.125 14.0013 14.2415 14.504 14.2415C15.012 14.2415 15.4742 14.1253 15.8839 13.8875L15.8864 13.8859C16.2909 13.6446 16.6118 13.3172 16.8465 12.9069C17.0898 12.4922 17.2093 12.0272 17.2093 11.5184C17.2093 11.0138 17.1005 10.5542 16.8772 10.146C16.662 9.73597 16.3627 9.40939 15.9804 9.1718C15.5941 8.92571 15.1589 8.80425 14.6819 8.80425C14.2958 8.80425 13.9343 8.8863 13.6014 9.05258C13.4644 9.11976 13.3355 9.19776 13.215 9.28647V7.46187C13.215 7.27075 13.1548 7.09346 13.0172 6.95595C12.8797 6.81843 12.7024 6.75818 12.5113 6.75818C12.3225 6.75818 12.1503 6.82032 12.0115 6.94985L12.0054 6.95595C11.8679 7.09346 11.8076 7.27075 11.8076 7.46187L11.8076 11.5184L11.8076 11.5216C11.8141 12.0287 11.9333 12.492 12.1697 12.9057ZM15.6535 12.2545C15.5374 12.4717 15.381 12.6399 15.183 12.7641C14.9886 12.8803 14.7647 12.9409 14.504 12.9409C14.2507 12.9409 14.0259 12.8809 13.8239 12.7634C13.6264 12.6393 13.4704 12.4713 13.3545 12.2545C13.2391 12.0389 13.1794 11.7953 13.1794 11.5184C13.1794 11.2347 13.2395 10.9923 13.3533 10.7845C13.469 10.5732 13.625 10.4105 13.8231 10.2917L13.8246 10.2907C14.0269 10.1674 14.2514 10.1049 14.504 10.1049C14.7636 10.1049 14.9867 10.1679 15.181 10.2893L15.1849 10.2917C15.383 10.4105 15.539 10.5733 15.6547 10.7845L15.6569 10.7884C15.7752 10.9955 15.8375 11.2365 15.8375 11.5184C15.8375 11.7934 15.7756 12.0356 15.6556 12.2506L15.6535 12.2545Z" fill="#AFB2B9"/>
</g>
</svg>
